<?xml version="1.0" encoding="UTF-8" standalone="yes"?><svg xmlns="http://www.w3.org/2000/svg" xmlns:xlink="http://www.w3.org/1999/xlink" height="236px" style="width:606px;height:236px;" version="1.1" viewBox="0 0 606 236" width="606px"><defs><filter height="300%" id="f1" width="300%" x="-1" y="-1"><feGaussianBlur result="blurOut" stdDeviation="2.0"/><feColorMatrix in="blurOut" result="blurOut2" type="matrix" values="0 0 0 0 0 0 0 0 0 0 0 0 0 0 0 0 0 0 .4 0"/><feOffset dx="4.0" dy="4.0" in="blurOut2" result="blurOut3"/><feBlend in="SourceGraphic" in2="blurOut3" mode="normal"/></filter></defs><g><rect fill="#FEFECE" filter="url(#f1)" height="48" style="stroke: #A80036; stroke-width: 1.5;" width="105" x="186" y="27"/><ellipse cx="201" cy="43" fill="#A9DCDF" rx="11" ry="11" style="stroke: #A80036; stroke-width: 1.0;"/><path d="M201.1094,38.3438 L199.9531,43.4219 L202.2813,43.4219 L201.1094,38.3438 Z M199.625,36.1094 L202.6094,36.1094 L205.9688,48.5 L203.5156,48.5 L202.75,45.4375 L199.4688,45.4375 L198.7188,48.5 L196.2813,48.5 L199.625,36.1094 Z "/><text fill="#000000" font-family="sans-serif" font-size="12" font-style="italic" lengthAdjust="spacingAndGlyphs" textLength="73" x="215" y="47.1543">AbstractList</text><line style="stroke: #A80036; stroke-width: 1.5;" x1="187" x2="290" y1="59" y2="59"/><line style="stroke: #A80036; stroke-width: 1.5;" x1="187" x2="290" y1="67" y2="67"/><rect fill="#FEFECE" filter="url(#f1)" height="48" style="stroke: #A80036; stroke-width: 1.5;" width="145" x="6" y="27"/><ellipse cx="21" cy="43" fill="#A9DCDF" rx="11" ry="11" style="stroke: #A80036; stroke-width: 1.0;"/><path d="M21.1094,38.3438 L19.9531,43.4219 L22.2813,43.4219 L21.1094,38.3438 Z M19.625,36.1094 L22.6094,36.1094 L25.9688,48.5 L23.5156,48.5 L22.75,45.4375 L19.4688,45.4375 L18.7188,48.5 L16.2813,48.5 L19.625,36.1094 Z "/><text fill="#000000" font-family="sans-serif" font-size="12" font-style="italic" lengthAdjust="spacingAndGlyphs" textLength="113" x="35" y="47.1543">AbstractCollection</text><line style="stroke: #A80036; stroke-width: 1.5;" x1="7" x2="150" y1="59" y2="59"/><line style="stroke: #A80036; stroke-width: 1.5;" x1="7" x2="150" y1="67" y2="67"/><rect fill="#FEFECE" filter="url(#f1)" height="73.6094" style="stroke: #A80036; stroke-width: 1.5;" width="132" x="172.5" y="154"/><ellipse cx="208.65" cy="170" fill="#ADD1B2" rx="11" ry="11" style="stroke: #A80036; stroke-width: 1.0;"/><path d="M211.6188,175.6406 Q211.0406,175.9375 210.4,176.0859 Q209.7594,176.2344 209.0563,176.2344 Q206.5563,176.2344 205.2359,174.5859 Q203.9156,172.9375 203.9156,169.8125 Q203.9156,166.6875 205.2359,165.0313 Q206.5563,163.375 209.0563,163.375 Q209.7594,163.375 210.4078,163.5313 Q211.0563,163.6875 211.6188,163.9844 L211.6188,166.7031 Q210.9938,166.125 210.4,165.8516 Q209.8063,165.5781 209.1813,165.5781 Q207.8375,165.5781 207.15,166.6484 Q206.4625,167.7188 206.4625,169.8125 Q206.4625,171.9063 207.15,172.9766 Q207.8375,174.0469 209.1813,174.0469 Q209.8063,174.0469 210.4,173.7734 Q210.9938,173.5 211.6188,172.9219 L211.6188,175.6406 Z "/><text fill="#000000" font-family="sans-serif" font-size="12" lengthAdjust="spacingAndGlyphs" textLength="53" x="227.35" y="174.1543">ArrayList</text><line style="stroke: #A80036; stroke-width: 1.5;" x1="173.5" x2="303.5" y1="186" y2="186"/><text fill="#000000" font-family="sans-serif" font-size="11" lengthAdjust="spacingAndGlyphs" textLength="120" x="178.5" y="200.2104">Object[] elementData</text><line style="stroke: #A80036; stroke-width: 1.5;" x1="173.5" x2="303.5" y1="206.8047" y2="206.8047"/><text fill="#000000" font-family="sans-serif" font-size="11" lengthAdjust="spacingAndGlyphs" textLength="30" x="178.5" y="221.0151">size()</text><rect fill="#FEFECE" filter="url(#f1)" height="86.4141" style="stroke: #A80036; stroke-width: 1.5;" width="86" x="326.5" y="8"/><ellipse cx="341.5" cy="24" fill="#EB937F" rx="11" ry="11" style="stroke: #A80036; stroke-width: 1.0;"/><path d="M345.6094,30 L337.8906,30 L337.8906,17.6094 L345.6094,17.6094 L345.6094,19.7656 L340.3438,19.7656 L340.3438,22.4375 L345.1094,22.4375 L345.1094,24.5938 L340.3438,24.5938 L340.3438,27.8438 L345.6094,27.8438 L345.6094,30 Z "/><text fill="#000000" font-family="sans-serif" font-size="12" lengthAdjust="spacingAndGlyphs" textLength="54" x="355.5" y="28.1543">TimeUnit</text><line style="stroke: #A80036; stroke-width: 1.5;" x1="327.5" x2="411.5" y1="40" y2="40"/><text fill="#000000" font-family="sans-serif" font-size="11" lengthAdjust="spacingAndGlyphs" textLength="30" x="332.5" y="54.2104">DAYS</text><text fill="#000000" font-family="sans-serif" font-size="11" lengthAdjust="spacingAndGlyphs" textLength="40" x="332.5" y="67.0151">HOURS</text><text fill="#000000" font-family="sans-serif" font-size="11" lengthAdjust="spacingAndGlyphs" textLength="50" x="332.5" y="79.8198">MINUTES</text><line style="stroke: #A80036; stroke-width: 1.5;" x1="327.5" x2="411.5" y1="86.4141" y2="86.4141"/><rect fill="#FEFECE" filter="url(#f1)" height="48" style="stroke: #A80036; stroke-width: 1.5;" width="149" x="448" y="27"/><ellipse cx="463" cy="43" fill="#A9DCDF" rx="11" ry="11" style="stroke: #A80036; stroke-width: 1.0;"/><path d="M465.0781,43.4688 Q465.0781,42.5313 464.6563,42 Q464.2344,41.4688 463.4844,41.4688 Q462.75,41.4688 462.3359,42 Q461.9219,42.5313 461.9219,43.4688 Q461.9219,44.4219 462.3359,44.9531 Q462.75,45.4844 463.4844,45.4844 Q464.2344,45.4844 464.6563,44.9531 Q465.0781,44.4219 465.0781,43.4688 Z M466.625,46.875 L465,46.875 L465,46.2031 Q464.6719,46.6406 464.25,46.8438 Q463.8281,47.0469 463.2188,47.0469 Q461.8594,47.0469 461.0313,46.0703 Q460.2031,45.0938 460.2031,43.4688 Q460.2031,41.875 461.0313,40.8984 Q461.8594,39.9219 463.2188,39.9219 Q463.8125,39.9219 464.2656,40.125 Q464.7188,40.3281 465,40.7188 L465,40.375 Q465,39.25 464.375,38.6328 Q463.75,38.0156 462.6094,38.0156 Q460.8906,38.0156 459.7969,39.5391 Q458.7031,41.0625 458.7031,43.5 Q458.7031,46.0469 459.9609,47.5469 Q461.2188,49.0469 463.3281,49.0469 Q463.9844,49.0469 464.6094,48.8594 Q465.2344,48.6719 465.8125,48.2813 L466.5781,49.7344 Q465.9063,50.1875 465.1094,50.4141 Q464.3125,50.6406 463.4063,50.6406 Q460.5,50.6406 458.7734,48.7109 Q457.0469,46.7813 457.0469,43.5 Q457.0469,40.2813 458.6016,38.3516 Q460.1563,36.4219 462.7188,36.4219 Q464.5156,36.4219 465.5703,37.5156 Q466.625,38.6094 466.625,40.4844 L466.625,46.875 Z "/><text fill="#000000" font-family="sans-serif" font-size="12" lengthAdjust="spacingAndGlyphs" textLength="117" x="477" y="47.1543">SuppressWarnings</text><line style="stroke: #A80036; stroke-width: 1.5;" x1="449" x2="596" y1="59" y2="59"/><line style="stroke: #A80036; stroke-width: 1.5;" x1="449" x2="596" y1="67" y2="67"/><path d="M171.468,51 C176.215,51 180.963,51 185.711,51 " fill="none" style="stroke: #A80036; stroke-width: 1.0;"/><polygon fill="none" points="171.313,58,151.312,51,171.312,44,171.313,58" style="stroke: #A80036; stroke-width: 1.0;"/><path d="M238.5,95.396 C238.5,114.19 238.5,135.9368 238.5,153.8379 " fill="none" style="stroke: #A80036; stroke-width: 1.0;"/><polygon fill="none" points="231.5,95.098,238.5,75.098,245.5,95.098,231.5,95.098" style="stroke: #A80036; stroke-width: 1.0;"/></g></svg>